PathFileType	4	(X/Y/Z)	15_1_29_p1_0-569_filt_butterworth.trc
DataRate	CameraRate	NumFrames	NumMarkers	Units	OrigDataRate	OrigDataStartFrame	OrigNumFrames
56.0	56.0	4	27	m	56.0	0	569
Frame#	Time	RHip			RKnee			RAnkle			RBigToe			RSmallToe			RHeel			LHip			LKnee			LAnkle			LBigToe			LSmallToe			LHeel			Neck			Head			Nose			RShoulder			RElbow			RWrist			RThumb			RIndex			RPinky			LShoulder			LElbow			LWrist			LThumb			LIndex			LPinky			
		X1	Y1	Z1	X2	Y2	Z2	X3	Y3	Z3	X4	Y4	Z4	X5	Y5	Z5	X6	Y6	Z6	X7	Y7	Z7	X8	Y8	Z8	X9	Y9	Z9	X10	Y10	Z10	X11	Y11	Z11	X12	Y12	Z12	X13	Y13	Z13	X14	Y14	Z14	X15	Y15	Z15	X16	Y16	Z16	X17	Y17	Z17	X18	Y18	Z18	X19	Y19	Z19	X20	Y20	Z20	X21	Y21	Z21	X22	Y22	Z22	X23	Y23	Z23	X24	Y24	Z24	X25	Y25	Z25	X26	Y26	Z26	X27	Y27	Z27	
0	0.0	0.234992551033608	0.21092085439352656	1.0633661596243258	0.22019780907170142	0.21402787996951897	1.514681223402002	0.26277582975471037	0.16566977610540737	1.9174256204358715	0.24490671646367757	0.02709844394829333	1.9156635057159244	0.2945945772189328	0.030786518745458232	1.8948708763574875	0.2634988723873694	0.23989018908693432	2.016541769518976	0.024770909189174295	0.21998321716899874	1.073966316849976	0.05698020297171651	0.22782198437079632	1.5171611624030412	0.07817330703785463	0.19974519254960216	1.959057480318431	0.08408808838684932	0.014099091604815147	1.9027734521331632	0.041834741611964536	0.05375867300615088	1.9179163556399548	0.09402161311172562	0.22546902736938967	2.010844718553812	0.08747566362575314	0.34926322682265354	0.4985432326602243	0.07209073545947702	0.36966437757910053	0.26133457788138553	0.08637596901128865	0.27272148997264156	0.36089851253913885	0.2553002026984373	0.3448406020301257	0.5973089755160138	0.3090967362890665	0.23485253799678002	0.8396248031759259	0.22542040210088768	0.06666947721317171	1.018460678869763	0.12052027160345921	0.00047730185597704496	1.0864946348134372	0.11746339111394029	0.018311457615316034	1.1024924411035761	0.15257660474667936	0.07845112942116533	1.1439645645848766	-0.04845047401406713	0.3648095067596499	0.6159819701839144	-0.04031165582526616	0.30092484683276	0.8727202475505448	0.06807348702680892	0.08446815097448283	1.0310241657612091	0.17521056283943473	0.05799632403422539	1.1023734582198166	0.17618646669519977	0.060306547409286856	1.1212326821132788	0.11904582338672985	0.07193669348539812	1.1316464417565932
1	0.0178571428571428	0.23105416752190613	0.21087145532301482	1.0589527643310968	0.21947535526056156	0.21112630724922582	1.514901470966824	0.262846415012768	0.16572574176053562	1.9177782481244583	0.2474829138750152	0.016703055945157454	1.903174507924647	0.2961276748458399	0.024247457878861275	1.888081664322118	0.26372426038699914	0.23890987620048243	2.0188498396307977	0.024803784666210544	0.22273678407561998	1.0720765904328953	0.060190783945145966	0.22061744816061762	1.5078685582533349	0.07738856405595448	0.19956858431970292	1.9553628973090882	0.08273221500442854	0.011681078645593607	1.8985517567358003	0.043110681705690136	0.0443041484932991	1.908672224907305	0.09403500242938181	0.22555542596739558	2.0109612602912805	0.08772206343104774	0.3495837580441087	0.49736491025930496	0.07338121656259011	0.3696136800413634	0.2620268278877666	0.08767131307760354	0.2729611236471045	0.36089162938696295	0.2536285811081732	0.3517310624342276	0.6000478074190525	0.30674739386684513	0.2452545966697327	0.8446273648328152	0.22306678748428047	0.06431302740083289	1.0207928177737549	0.12009178656794975	-0.003774270834158423	1.0834527361984212	0.11828607994392816	0.015876987626526305	1.0985540041948723	0.15060589467676375	0.07735941264486193	1.1476299044152487	-0.04828660109173697	0.3649016048306091	0.6158626195451263	-0.03943154916193435	0.2864312146364985	0.8698150809014276	0.06812702762135696	0.08428888072336549	1.032531131616695	0.16954802388145568	0.0506285652388211	1.1018662696341082	0.1708260220464103	0.05323790575989696	1.1198258432480048	0.1196065135846134	0.07738332147966627	1.1378089717869948
2	0.0357142857142857	0.22865148376150518	0.21151802690482652	1.0572486281623168	0.21889517061732372	0.20944716887187886	1.5137925290724223	0.2628779298016659	0.16578357876056307	1.917943345729771	0.24874485776449368	0.011446603775713087	1.896424357256627	0.2965916169224797	0.023000575624869436	1.8857298500713682	0.2638389219453029	0.2385819373571335	2.0201036577799307	0.024134854359777375	0.22637179859125878	1.0710107009869447	0.06211662006052143	0.2169029642571108	1.5022129736133232	0.07693510188242125	0.19947784834523696	1.9532132448606767	0.08192638979420547	0.010755907593685218	1.8958019162097066	0.043201112279492644	0.04179416430727348	1.9062409268605929	0.09407138535552814	0.22562027065573967	2.0109907191735568	0.08857246720004855	0.34998671351818855	0.4961668846106623	0.07465401755829965	0.3696286948664991	0.2619136514250418	0.08939485406542874	0.2732791022935623	0.36087287243923855	0.25328165712814626	0.3533330132446851	0.6007421062249688	0.3054475458399409	0.2507651011315085	0.8469915203651481	0.2198975432563939	0.06601930868926256	1.0246408529104758	0.11987371578008768	-0.005774015419508275	1.0821107515179014	0.11926529652203427	0.013777962569668427	1.0950034430604083	0.1487756571971357	0.07583581741631382	1.1469811751744676	-0.04819464654953728	0.36480751038732473	0.6158638373431646	-0.03894098085144639	0.2781976857868556	0.8687938653745129	0.06756056406090487	0.0838844480545374	1.0338990559313948	0.16612121866846283	0.04667884013273868	1.1017697626584337	0.16647503809323005	0.04887999013131585	1.1184902027131725	0.11954621826257905	0.07850304338990649	1.140571671062478
3	0.0535714285714285	0.22826770014317038	0.2105190293178676	1.0578749184567695	0.2183796691675745	0.2085344486447599	1.5109702920182224	0.2628802131575191	0.16586142632232595	1.9179373325095428	0.24849717412412392	0.01217332102987051	1.8959632220397753	0.29606426873936953	0.02653793117482317	1.8875938176314366	0.2638460666599989	0.23872045054043034	2.020278761718322	0.022931233529794533	0.22848397082634653	1.0706519986227379	0.06270082542772966	0.2167037672780543	1.500802901236932	0.07681280220574269	0.1994777397297853	1.9526200815826562	0.08200306950308894	0.011831281247536617	1.895566779654943	0.042485807545092985	0.04620930788015132	1.910581819780489	0.09412389749475054	0.22566314518134406	2.0109280369906024	0.08995084968357976	0.35059080927181246	0.49533408639315224	0.0759631822680807	0.36992887114387585	0.26144292797180646	0.09149165661747362	0.27384157967829753	0.36100181634431583	0.25412426423668477	0.350169663876895	0.5995785978683201	0.305403183929462	0.25061927790056754	0.846477390062278	0.21499665849790361	0.0726200591444029	1.0301730122178192	0.11992109690773795	-0.0030648295346655313	1.0842933018334786	0.11988802682693174	0.012339580482473477	1.0933537189323435	0.14660676231916925	0.0741268137090228	1.1422096289263357	-0.04816955458600958	0.36449129975862926	0.6162027989798327	-0.03928113243311026	0.2762846447812683	0.8691953230425354	0.06619981538282266	0.08323604239910472	1.034748397416083	0.16479005605989186	0.04675537838653719	1.102180618362901	0.1633297301330617	0.04740794875237473	1.1178341619765253	0.11780327228238319	0.07658704916763948	1.1409158428149966
